<svg width="24" height="24" viewBox="0 0 24 24" fill="none" xmlns="http://www.w3.org/2000/svg">
<g clip-path="url(#clip0_1884_12441)">
<path d="M10.4969 24C10.2439 24 9.99091 23.934 9.75891 23.803C9.28291 23.533 8.99891 23.046 8.99891 22.5V13.81C8.99891 13.708 8.96791 13.61 8.90991 13.526L1.26391 2.34602C0.947911 1.88502 0.912911 1.29002 1.17391 0.795023C1.43291 0.304023 1.93691 -0.000976562 2.48891 -0.000976562H21.5089C22.0619 -0.000976562 22.5659 0.304023 22.8239 0.795023C23.0849 1.29102 23.0499 1.88502 22.7329 2.34702L15.0889 13.524C15.0299 13.61 14.9989 13.708 14.9989 13.81V20.696C14.9989 21.218 14.7209 21.711 14.2719 21.98L11.2669 23.783C11.0269 23.928 10.7619 24 10.4969 24ZM2.48891 0.999023C2.22491 0.999023 2.09991 1.18302 2.05891 1.26102C1.96991 1.43002 1.98091 1.62402 2.08891 1.78102L9.73391 12.96C9.90691 13.21 9.99891 13.505 9.99891 13.81V22.5C9.99891 22.762 10.1759 22.89 10.2509 22.933C10.3269 22.976 10.5279 23.06 10.7519 22.927L13.7569 21.124C13.9059 21.034 13.9989 20.87 13.9989 20.696V13.81C13.9989 13.505 14.0909 13.21 14.2649 12.958L21.9089 1.78202C22.0169 1.62402 22.0279 1.43002 21.9389 1.26102C21.8969 1.18202 21.7719 0.999023 21.5089 0.999023H2.48891Z" fill="black"/>
<path d="M10.5009 11.9992C10.3389 11.9992 10.1809 11.9212 10.0839 11.7762L4.08391 2.77619C3.93091 2.54619 3.99291 2.23619 4.22291 2.08319C4.45291 1.93019 4.76391 1.99119 4.91591 2.22219L10.9159 11.2222C11.0689 11.4522 11.0069 11.7622 10.7769 11.9152C10.6919 11.9712 10.5959 11.9992 10.5009 11.9992Z" fill="black"/>
<path d="M19.2425 11.679C18.9785 11.679 18.7115 11.609 18.4695 11.464L16.7425 10.428C16.5055 10.286 16.4295 9.97897 16.5715 9.74197C16.7145 9.50497 17.0205 9.42897 17.2575 9.57097L18.9845 10.607C19.2045 10.739 19.4875 10.684 19.6415 10.478L21.4355 8.08597C21.5215 7.97197 21.5535 7.83097 21.5255 7.68997C21.4975 7.54897 21.4155 7.43097 21.2925 7.35697L19.7435 6.42697C19.5065 6.28497 19.4305 5.97797 19.5725 5.74097C19.7145 5.50397 20.0215 5.42697 20.2585 5.56997L21.8075 6.49997C22.1705 6.71797 22.4265 7.08197 22.5075 7.49797C22.5885 7.91397 22.4895 8.34697 22.2365 8.68597L20.4425 11.078C20.1485 11.468 19.7005 11.679 19.2425 11.679Z" fill="black"/>
</g>
<defs>
<clipPath id="clip0_1884_12441">
<rect width="24" height="24" fill="white"/>
</clipPath>
</defs>
</svg>
