<svg width="24" height="24" viewBox="0 0 24 24" fill="currentColor" stroke="currentColor" xmlns="http://www.w3.org/2000/svg">
<path d="M12.0001 22.2857C9.85011 22.2857 7.75421 21.612 6.00693 20.3593C4.25963 19.1066 2.94881 17.3379 2.25868 15.3017C1.56855 13.2655 1.53381 11.0643 2.15934 9.00735C2.78487 6.95041 4.03924 5.1412 5.74613 3.83398C7.45302 2.52676 9.52662 1.78726 11.6755 1.71942C13.8244 1.65158 15.9405 2.2588 17.7265 3.45575C19.5124 4.65269 20.8784 6.37919 21.6324 8.39256C22.3865 10.406 22.4906 12.605 21.9303 14.6806L19.6194 14.0568C20.0492 12.4642 19.9694 10.777 19.3908 9.23209C18.8122 7.68726 17.7641 6.36257 16.3938 5.44417C15.0235 4.52578 13.3998 4.05987 11.7511 4.11192C10.1022 4.16398 8.51121 4.73138 7.20155 5.73438C5.89189 6.73738 4.92945 8.12555 4.44948 9.7038C3.96952 11.2821 3.99618 12.971 4.5257 14.5333C5.05522 16.0956 6.06099 17.4527 7.40165 18.4139C8.74231 19.3751 10.3505 19.8921 12.0001 19.8921V22.2857Z" />
</svg>
